<svg xmlns="http://www.w3.org/2000/svg" xmlns:xlink="http://www.w3.org/1999/xlink" width="1080" zoomAndPan="magnify" viewBox="0 0 810 809.999993" height="1080" preserveAspectRatio="xMidYMid meet" version="1.0"><path fill="#000000" d="M 333.65625 29.855469 C 164.382812 31.707031 28.65625 170.46875 30.523438 339.746094 C 32.367188 508.996094 171.113281 644.730469 340.398438 642.871094 C 402.910156 642.191406 463.71875 622.394531 514.6875 586.148438 L 689.757812 761.1875 C 709.800781 780.96875 742.121094 780.765625 761.90625 760.691406 C 781.488281 740.839844 781.488281 708.910156 761.90625 689.03125 L 586.835938 513.996094 C 684.953125 376.054688 652.640625 184.675781 514.6875 86.550781 C 461.839844 49 398.472656 29.144531 333.65625 29.855469 Z M 329.96875 82.90625 C 469.761719 79 586.261719 189.140625 590.167969 328.957031 C 590.226562 331.417969 590.28125 333.875 590.28125 336.328125 C 590.335938 476.171875 477 589.59375 337.167969 589.675781 C 197.316406 589.726562 83.886719 476.417969 83.820312 336.558594 C 83.820312 336.488281 83.820312 336.421875 83.820312 336.339844 C 83.664062 199.132812 192.804688 86.746094 329.96875 82.90625 Z M 329.96875 82.90625 " fill-opacity="1" fill-rule="nonzero"/><path fill="#000000" d="M 268.683594 148.542969 C 282.542969 143.585938 297.796875 150.78125 302.769531 164.644531 C 307.699219 178.402344 300.636719 193.578125 286.914062 198.65625 C 229.019531 219.726562 190.484375 274.753906 190.484375 336.355469 C 190.484375 351.085938 178.550781 363.023438 163.832031 363.023438 C 149.109375 363.023438 137.175781 351.085938 137.175781 336.355469 C 137.183594 252.335938 189.726562 177.277344 268.683594 148.542969 Z M 268.683594 148.542969 " fill-opacity="1" fill-rule="nonzero"/></svg>