<svg xmlns="http://www.w3.org/2000/svg" xmlns:xlink="http://www.w3.org/1999/xlink" width="1080" zoomAndPan="magnify" viewBox="0 0 810 809.999993" height="1080" preserveAspectRatio="xMidYMid meet" version="1.0"><defs><clipPath id="bd20050f57"><path d="M 264 653 L 546 653 L 546 752.46875 L 264 752.46875 Z M 264 653 " clip-rule="nonzero"/></clipPath><clipPath id="b8fe8b144d"><path d="M 287 57.21875 L 518 57.21875 L 518 440 L 287 440 Z M 287 57.21875 " clip-rule="nonzero"/></clipPath></defs><path fill="#ffffff" d="M 683.910156 211.8125 L 476.246094 211.8125 L 476.246094 259.261719 L 676.902344 259.261719 L 676.902344 563.902344 L 133.011719 563.902344 L 133.011719 259.261719 L 328.894531 259.261719 L 328.894531 211.8125 L 126.082031 211.8125 C 106.515625 211.8125 90.570312 227.757812 90.570312 247.324219 L 90.570312 602.339844 C 90.570312 621.90625 106.515625 637.851562 126.082031 637.851562 L 683.910156 637.851562 C 703.476562 637.851562 719.421875 621.90625 719.421875 602.339844 L 719.421875 247.324219 C 719.421875 227.757812 703.476562 211.8125 683.910156 211.8125 Z M 404.996094 612.585938 C 396.367188 612.585938 389.4375 605.730469 389.4375 597.101562 C 389.4375 588.476562 396.367188 581.46875 404.996094 581.46875 C 413.621094 581.46875 420.476562 588.476562 420.476562 597.101562 C 420.476562 605.730469 413.621094 612.585938 404.996094 612.585938 Z M 404.996094 612.585938 " fill-opacity="1" fill-rule="nonzero"/><g clip-path="url(#bd20050f57)"><path fill="#ffffff" d="M 545.648438 725.894531 L 545.648438 752.3125 L 264.269531 752.3125 L 264.269531 725.894531 C 264.269531 718.191406 270.507812 711.949219 278.210938 711.949219 L 312.410156 711.949219 L 318.339844 653.253906 L 491.574219 653.253906 L 497.582031 711.949219 L 531.78125 711.949219 C 539.484375 711.949219 545.648438 718.191406 545.648438 725.894531 Z M 545.648438 725.894531 " fill-opacity="1" fill-rule="nonzero"/></g><g clip-path="url(#b8fe8b144d)"><path fill="#ffffff" d="M 514.390625 330.335938 L 411.066406 436.085938 C 406.46875 440.792969 398.898438 440.796875 394.292969 436.09375 L 290.789062 330.34375 C 283.523438 322.917969 288.78125 310.40625 299.171875 310.40625 L 344.296875 310.40625 L 344.296875 79.25 C 344.296875 66.925781 355.851562 56.914062 370.101562 56.914062 L 435.035156 56.914062 C 449.285156 56.914062 460.839844 66.925781 460.839844 79.25 L 460.839844 310.40625 L 506 310.40625 C 516.386719 310.40625 521.648438 322.90625 514.390625 330.335938 Z M 514.390625 330.335938 " fill-opacity="1" fill-rule="nonzero"/></g></svg>