<svg xmlns="http://www.w3.org/2000/svg" xmlns:xlink="http://www.w3.org/1999/xlink" width="1080" zoomAndPan="magnify" viewBox="0 0 810 809.999993" height="1080" preserveAspectRatio="xMidYMid meet" version="1.0"><defs><clipPath id="783466d423"><path d="M 51.367188 36.632812 L 757 36.632812 L 757 773.132812 L 51.367188 773.132812 Z M 51.367188 36.632812 " clip-rule="nonzero"/></clipPath></defs><rect x="-81" width="972" fill="#ffffff" y="-80.999999" height="971.999992" fill-opacity="1"/><rect x="-81" width="972" fill="#ffffff" y="-80.999999" height="971.999992" fill-opacity="1"/><g clip-path="url(#783466d423)"><path fill="#000000" d="M 750.132812 736.128906 L 670.160156 656.1875 C 690.25 629.695312 702.320312 596.796875 702.320312 561.066406 C 702.320312 494.332031 660.632812 437.261719 601.972656 414.175781 L 601.972656 58.308594 C 601.972656 46.328125 592.265625 36.632812 580.289062 36.632812 L 73.167969 36.632812 C 61.191406 36.632812 51.484375 46.328125 51.484375 58.308594 L 51.484375 604.417969 C 51.484375 616.402344 61.191406 626.09375 73.167969 626.09375 L 400.558594 626.09375 C 425.417969 680.796875 480.453125 719.003906 544.355469 719.003906 C 580.105469 719.003906 613.003906 706.929688 639.503906 686.839844 L 719.472656 766.78125 C 723.707031 771.015625 729.253906 773.132812 734.800781 773.132812 C 740.351562 773.132812 745.898438 771.015625 750.132812 766.78125 C 758.601562 758.316406 758.601562 744.597656 750.132812 736.128906 Z M 94.851562 582.742188 L 94.851562 79.988281 L 558.609375 79.988281 L 558.609375 403.867188 C 553.90625 403.445312 549.167969 403.148438 544.355469 403.148438 C 457.253906 403.148438 386.382812 474 386.382812 561.066406 C 386.382812 568.433594 387.070312 575.640625 388.050781 582.742188 Z M 429.75 561.066406 C 429.75 497.898438 481.160156 446.5 544.355469 446.5 C 607.542969 446.5 658.953125 497.898438 658.953125 561.066406 C 658.953125 624.253906 607.542969 675.652344 544.355469 675.652344 C 481.160156 675.652344 429.75 624.253906 429.75 561.066406 Z M 429.75 561.066406 " fill-opacity="1" fill-rule="nonzero"/></g><path fill="#000000" d="M 200.351562 216.523438 L 453.105469 216.523438 C 465.078125 216.523438 474.789062 206.828125 474.789062 194.847656 C 474.789062 182.867188 465.078125 173.171875 453.105469 173.171875 L 200.351562 173.171875 C 188.378906 173.171875 178.671875 182.867188 178.671875 194.847656 C 178.671875 206.828125 188.378906 216.523438 200.351562 216.523438 Z M 200.351562 216.523438 " fill-opacity="1" fill-rule="nonzero"/><path fill="#000000" d="M 200.351562 353.042969 L 453.105469 353.042969 C 465.078125 353.042969 474.789062 343.347656 474.789062 331.363281 C 474.789062 319.382812 465.078125 309.6875 453.105469 309.6875 L 200.351562 309.6875 C 188.378906 309.6875 178.671875 319.382812 178.671875 331.363281 C 178.671875 343.347656 188.378906 353.042969 200.351562 353.042969 Z M 200.351562 353.042969 " fill-opacity="1" fill-rule="nonzero"/><path fill="#000000" d="M 313.066406 446.226562 L 200.351562 446.226562 C 188.378906 446.226562 178.671875 455.921875 178.671875 467.902344 C 178.671875 479.882812 188.378906 489.578125 200.351562 489.578125 L 313.066406 489.578125 C 325.039062 489.578125 334.75 479.882812 334.75 467.902344 C 334.75 455.921875 325.039062 446.226562 313.066406 446.226562 Z M 313.066406 446.226562 " fill-opacity="1" fill-rule="nonzero"/><path fill="#000000" d="M 597.78125 507.65625 C 589.3125 499.191406 575.589844 499.191406 567.121094 507.65625 L 544.355469 530.414062 L 521.59375 507.65625 C 513.125 499.191406 499.402344 499.191406 490.933594 507.65625 C 482.464844 516.125 482.464844 529.839844 490.933594 538.308594 L 513.695312 561.066406 L 490.933594 583.820312 C 482.464844 592.289062 482.464844 606.007812 490.933594 614.472656 C 495.167969 618.707031 500.714844 620.824219 506.265625 620.824219 C 511.8125 620.824219 517.359375 618.707031 521.59375 614.472656 L 544.355469 591.71875 L 567.121094 614.472656 C 571.355469 618.707031 576.902344 620.824219 582.449219 620.824219 C 588 620.824219 593.546875 618.707031 597.78125 614.472656 C 606.25 606.007812 606.25 592.289062 597.78125 583.820312 L 575.019531 561.066406 L 597.78125 538.308594 C 606.25 529.839844 606.25 516.125 597.78125 507.65625 Z M 597.78125 507.65625 " fill-opacity="1" fill-rule="nonzero"/></svg>