<svg xmlns="http://www.w3.org/2000/svg" xmlns:xlink="http://www.w3.org/1999/xlink" width="1080" zoomAndPan="magnify" viewBox="0 0 810 809.999993" height="1080" preserveAspectRatio="xMidYMid meet" version="1.0"><defs><clipPath id="e10113058f"><path d="M 273 14.773438 L 532 14.773438 L 532 444 L 273 444 Z M 273 14.773438 " clip-rule="nonzero"/></clipPath></defs><path fill="#ffffff" d="M 717.953125 188.230469 L 484.945312 188.230469 L 484.945312 241.472656 L 710.089844 241.472656 L 710.089844 583.292969 L 99.820312 583.292969 L 99.820312 241.472656 L 319.609375 241.472656 L 319.609375 188.230469 L 92.042969 188.230469 C 70.089844 188.230469 52.199219 206.125 52.199219 228.078125 L 52.199219 626.425781 C 52.199219 648.378906 70.089844 666.265625 92.042969 666.265625 L 717.953125 666.265625 C 739.90625 666.265625 757.796875 648.378906 757.796875 626.425781 L 757.796875 228.078125 C 757.796875 206.125 739.90625 188.230469 717.953125 188.230469 Z M 405 637.917969 C 395.320312 637.917969 387.539062 630.226562 387.539062 620.546875 C 387.539062 610.867188 395.320312 603.003906 405 603.003906 C 414.679688 603.003906 422.371094 610.867188 422.371094 620.546875 C 422.371094 630.226562 414.679688 637.917969 405 637.917969 Z M 405 637.917969 " fill-opacity="1" fill-rule="nonzero"/><path fill="#ffffff" d="M 562.816406 765.054688 L 562.816406 794.699219 L 247.09375 794.699219 L 247.09375 765.054688 C 247.09375 756.414062 254.097656 749.410156 262.738281 749.410156 L 301.113281 749.410156 L 307.765625 683.550781 L 502.144531 683.550781 L 508.886719 749.410156 L 547.257812 749.410156 C 555.902344 749.410156 562.816406 756.414062 562.816406 765.054688 Z M 562.816406 765.054688 " fill-opacity="1" fill-rule="nonzero"/><g clip-path="url(#e10113058f)"><path fill="#ffffff" d="M 527.746094 321.222656 L 411.8125 439.878906 C 406.652344 445.160156 398.15625 445.164062 392.992188 439.886719 L 276.855469 321.230469 C 268.699219 312.898438 274.601562 298.859375 286.261719 298.859375 L 336.894531 298.859375 L 336.894531 39.488281 C 336.894531 25.660156 349.859375 14.425781 365.847656 14.425781 L 438.707031 14.425781 C 454.695312 14.425781 467.660156 25.660156 467.660156 39.488281 L 467.660156 298.859375 L 518.332031 298.859375 C 529.984375 298.859375 535.890625 312.886719 527.746094 321.222656 Z M 527.746094 321.222656 " fill-opacity="1" fill-rule="nonzero"/></g></svg>