<svg xmlns="http://www.w3.org/2000/svg" xmlns:xlink="http://www.w3.org/1999/xlink" width="1080" zoomAndPan="magnify" viewBox="0 0 810 809.999993" height="1080" preserveAspectRatio="xMidYMid meet" version="1.0"><defs><clipPath id="108c9378d5"><path d="M 77.480469 30.691406 L 732.230469 30.691406 L 732.230469 217 L 77.480469 217 Z M 77.480469 30.691406 " clip-rule="nonzero"/></clipPath><clipPath id="3cdd58ca86"><path d="M 124 265 L 687 265 L 687 779.191406 L 124 779.191406 Z M 124 265 " clip-rule="nonzero"/></clipPath></defs><g clip-path="url(#108c9378d5)"><path fill="#ffffff" d="M 709.117188 122.511719 L 545.359375 122.511719 L 545.359375 54.085938 C 545.359375 41.21875 534.832031 30.691406 521.964844 30.691406 L 288.027344 30.691406 C 275.160156 30.691406 264.632812 41.21875 264.632812 54.085938 L 264.632812 122.511719 L 100.875 122.511719 C 88.007812 122.511719 77.480469 133.039062 77.480469 145.90625 L 77.480469 192.695312 C 77.480469 205.5625 88.007812 216.089844 100.875 216.089844 L 709.117188 216.089844 C 721.984375 216.089844 732.511719 205.5625 732.511719 192.695312 L 732.511719 145.90625 C 732.511719 133.039062 721.984375 122.511719 709.117188 122.511719 Z M 709.117188 122.511719 " fill-opacity="1" fill-rule="nonzero"/></g><g clip-path="url(#3cdd58ca86)"><path fill="#ffffff" d="M 180.414062 758.828125 C 181.585938 770.523438 191.527344 779.296875 203.808594 779.296875 L 606.769531 779.296875 C 618.464844 779.296875 628.40625 770.523438 630.164062 758.828125 L 686.308594 265.214844 L 124.269531 265.214844 Z M 498.570312 682.796875 L 539.511719 355.867188 C 541.265625 343 552.960938 334.226562 565.828125 335.398438 C 578.695312 337.152344 587.46875 348.847656 586.300781 361.714844 L 545.359375 688.644531 C 543.605469 700.34375 533.664062 709.117188 521.964844 709.117188 C 520.796875 709.117188 520.210938 709.117188 519.042969 709.117188 C 506.175781 707.359375 497.402344 695.664062 498.570312 682.796875 Z M 381.601562 358.792969 C 381.601562 345.925781 392.128906 335.398438 404.996094 335.398438 C 417.863281 335.398438 428.390625 345.925781 428.390625 358.792969 L 428.390625 685.722656 C 428.390625 698.589844 417.863281 709.117188 404.996094 709.117188 C 392.128906 709.117188 381.601562 698.589844 381.601562 685.722656 Z M 244.164062 335.398438 C 257.03125 333.644531 268.726562 343 270.480469 355.867188 L 311.421875 682.796875 C 313.175781 695.664062 303.816406 707.359375 290.949219 709.117188 C 289.78125 709.117188 289.195312 709.117188 288.027344 709.117188 C 276.328125 709.117188 266.386719 700.34375 264.632812 688.644531 L 223.691406 361.714844 C 222.523438 348.847656 231.296875 337.152344 244.164062 335.398438 Z M 244.164062 335.398438 " fill-opacity="1" fill-rule="nonzero"/></g></svg>