<svg xmlns="http://www.w3.org/2000/svg" xmlns:xlink="http://www.w3.org/1999/xlink" width="1080" zoomAndPan="magnify" viewBox="0 0 810 809.999993" height="1080" preserveAspectRatio="xMidYMid meet" version="1.0"><defs><clipPath id="052d207e53"><path d="M 217 40.941406 L 594 40.941406 L 594 620 L 217 620 Z M 217 40.941406 " clip-rule="nonzero"/></clipPath><clipPath id="3b757160fb"><path d="M 30.308594 506 L 780.308594 506 L 780.308594 790.941406 L 30.308594 790.941406 Z M 30.308594 506 " clip-rule="nonzero"/></clipPath></defs><g clip-path="url(#052d207e53)"><path fill="#ffffff" d="M 438.484375 506.460938 L 438.484375 73.988281 C 438.484375 65.238281 435.089844 56.839844 428.839844 50.589844 C 422.585938 44.515625 414.191406 40.941406 405.4375 40.941406 C 396.683594 40.941406 388.289062 44.515625 382.035156 50.589844 C 375.785156 56.839844 372.390625 65.238281 372.390625 73.988281 L 372.390625 506.460938 C 372.390625 506.460938 309.332031 443.402344 274.140625 408.210938 C 267.890625 401.960938 259.496094 398.566406 250.742188 398.566406 C 241.988281 398.566406 233.59375 401.960938 227.339844 408.210938 C 214.480469 421.074219 214.480469 441.972656 227.339844 454.835938 L 383.285156 610.78125 C 389.183594 616.675781 397.042969 619.890625 405.4375 619.890625 C 413.832031 619.890625 421.691406 616.675781 427.585938 610.78125 L 583.535156 454.835938 C 596.394531 441.972656 596.394531 421.074219 583.535156 408.210938 C 577.28125 401.960938 568.886719 398.566406 560.132812 398.566406 C 551.378906 398.566406 542.984375 401.960938 536.730469 408.210938 C 501.363281 443.402344 438.484375 506.460938 438.484375 506.460938 Z M 438.484375 506.460938 " fill-opacity="1" fill-rule="evenodd"/></g><g clip-path="url(#3b757160fb)"><path fill="#ffffff" d="M 30.308594 728.679688 C 30.308594 745.292969 36.917969 761.191406 48.707031 772.800781 C 60.496094 784.589844 76.394531 791.199219 92.828125 791.199219 L 718.042969 791.199219 C 734.65625 791.199219 750.554688 784.589844 762.167969 772.800781 C 773.957031 761.011719 780.566406 745.113281 780.566406 728.679688 L 780.566406 539.507812 C 780.566406 521.285156 765.738281 506.460938 747.519531 506.460938 C 738.765625 506.460938 730.371094 510.03125 724.117188 516.105469 C 717.867188 522.359375 714.472656 530.753906 714.472656 539.507812 L 714.472656 694.023438 C 714.472656 711.351562 700.539062 725.285156 683.210938 725.285156 L 127.664062 725.285156 C 110.335938 725.285156 96.402344 711.351562 96.402344 694.023438 L 96.402344 539.507812 C 96.402344 530.753906 92.828125 522.359375 86.757812 516.105469 C 80.503906 509.855469 72.109375 506.460938 63.355469 506.460938 C 45.136719 506.460938 30.308594 521.285156 30.308594 539.507812 Z M 30.308594 728.679688 " fill-opacity="1" fill-rule="evenodd"/></g></svg>