<svg xmlns="http://www.w3.org/2000/svg" xmlns:xlink="http://www.w3.org/1999/xlink" width="1080" zoomAndPan="magnify" viewBox="0 0 810 809.999993" height="1080" preserveAspectRatio="xMidYMid meet" version="1.0"><defs><clipPath id="c091d894d8"><path d="M 128.742188 134 L 611 134 L 611 756.386719 L 128.742188 756.386719 Z M 128.742188 134 " clip-rule="nonzero"/></clipPath><clipPath id="e5bba111d4"><path d="M 199 53.636719 L 681.492188 53.636719 L 681.492188 676 L 199 676 Z M 199 53.636719 " clip-rule="nonzero"/></clipPath></defs><g clip-path="url(#c091d894d8)"><path fill="#ffffff" d="M 128.96875 134.230469 L 128.96875 756.351562 L 610.273438 756.351562 L 610.273438 240.535156 L 526.578125 240.535156 C 519.328125 240.535156 513.460938 234.667969 513.460938 227.417969 L 513.460938 134.230469 Z M 418.71875 571.007812 L 202.140625 571.007812 C 194.890625 571.007812 189.023438 565.140625 189.023438 557.894531 C 189.023438 550.644531 194.890625 544.777344 202.140625 544.777344 L 418.71875 544.777344 C 425.964844 544.777344 431.835938 550.644531 431.835938 557.894531 C 431.835938 565.140625 425.964844 571.007812 418.71875 571.007812 Z M 536.929688 486.277344 L 202.140625 486.277344 C 194.890625 486.277344 189.023438 480.410156 189.023438 473.160156 C 189.023438 465.914062 194.890625 460.046875 202.140625 460.046875 L 536.929688 460.046875 C 544.179688 460.046875 550.046875 465.914062 550.046875 473.160156 C 550.046875 480.410156 544.179688 486.277344 536.929688 486.277344 Z M 536.929688 401.371094 L 202.140625 401.371094 C 194.890625 401.371094 189.023438 395.503906 189.023438 388.253906 C 189.023438 381.007812 194.890625 375.140625 202.140625 375.140625 L 536.929688 375.140625 C 544.179688 375.140625 550.046875 381.007812 550.046875 388.253906 C 550.046875 395.503906 544.179688 401.371094 536.929688 401.371094 Z M 536.929688 290.234375 C 544.179688 290.234375 550.046875 296.101562 550.046875 303.351562 C 550.046875 310.597656 544.179688 316.464844 536.929688 316.464844 L 202.140625 316.464844 C 194.890625 316.464844 189.023438 310.597656 189.023438 303.351562 C 189.023438 296.101562 194.890625 290.234375 202.140625 290.234375 Z M 536.929688 290.234375 " fill-opacity="1" fill-rule="nonzero"/></g><path fill="#ffffff" d="M 593.707031 214.300781 L 539.691406 154.9375 L 539.691406 214.300781 Z M 593.707031 214.300781 " fill-opacity="1" fill-rule="nonzero"/><g clip-path="url(#e5bba111d4)"><path fill="#ffffff" d="M 199.550781 53.636719 L 199.550781 107.996094 L 526.578125 107.996094 C 526.75 107.996094 526.75 107.996094 526.921875 107.996094 C 527.785156 107.996094 528.648438 108.34375 529.511719 108.515625 C 530.371094 108.6875 531.234375 108.6875 531.925781 109.035156 C 532.445312 109.378906 532.960938 109.722656 533.652344 110.070312 C 534.515625 110.585938 535.378906 111.105469 536.066406 111.96875 C 536.066406 111.96875 536.242188 112.140625 536.242188 112.140625 L 633.054688 218.445312 C 633.570312 218.960938 633.742188 219.480469 634.089844 220.171875 C 634.605469 221.03125 635.125 221.722656 635.640625 222.585938 C 635.988281 223.449219 636.160156 224.484375 636.160156 225.519531 C 636.332031 226.210938 636.503906 226.726562 636.503906 227.417969 L 636.503906 675.761719 L 681.027344 675.761719 L 681.027344 53.636719 Z M 199.550781 53.636719 " fill-opacity="1" fill-rule="nonzero"/></g></svg>