<svg xmlns="http://www.w3.org/2000/svg" xmlns:xlink="http://www.w3.org/1999/xlink" width="1080" zoomAndPan="magnify" viewBox="0 0 810 809.999993" height="1080" preserveAspectRatio="xMidYMid meet" version="1.0"><path fill="#ffffff" d="M 195.222656 106.261719 C 109.183594 106.261719 39.132812 176.449219 39.132812 262.351562 L 39.132812 626.558594 C 39.132812 712.597656 109.183594 782.648438 195.222656 782.648438 L 559.429688 782.648438 C 645.46875 782.648438 715.515625 712.597656 715.515625 626.558594 L 715.515625 470.472656 C 715.515625 456.109375 703.863281 444.457031 689.503906 444.457031 C 675.140625 444.457031 663.488281 456.109375 663.488281 470.472656 L 663.488281 626.558594 C 663.488281 684.6875 617.554688 730.617188 559.429688 730.617188 L 195.222656 730.617188 C 137.230469 730.617188 91.164062 684.6875 91.164062 626.558594 L 91.164062 262.351562 C 91.164062 204.359375 137.230469 158.292969 195.222656 158.292969 L 351.308594 158.292969 C 365.671875 158.292969 377.324219 146.640625 377.324219 132.277344 C 377.324219 117.917969 365.671875 106.261719 351.308594 106.261719 Z M 195.222656 106.261719 " fill-opacity="1" fill-rule="nonzero"/><path fill="#ffffff" d="M 567.828125 88.378906 L 265.949219 390.257812 C 261.882812 394.324219 259.308594 399.609375 258.632812 405.164062 L 238.851562 550.414062 C 236.546875 567.214844 250.636719 581.574219 267.574219 579.8125 L 415.941406 563.285156 C 421.902344 562.605469 427.320312 560.03125 431.523438 555.832031 L 733.402344 254.085938 C 778.929688 208.425781 778.929688 134.039062 733.402344 88.378906 C 688.691406 41.769531 611.59375 45.96875 567.828125 88.378906 Z M 696.546875 125.234375 C 722.292969 150.976562 722.292969 191.355469 696.546875 217.234375 L 668.90625 244.875 L 577.042969 152.875 L 604.546875 125.234375 C 634.761719 95.019531 672.023438 100.707031 696.546875 125.234375 Z M 540.1875 189.59375 L 632.1875 281.59375 L 401.171875 512.609375 L 294.945312 524.398438 L 308.902344 420.878906 Z M 540.1875 189.59375 " fill-opacity="1" fill-rule="nonzero"/></svg>