<svg xmlns="http://www.w3.org/2000/svg" xmlns:xlink="http://www.w3.org/1999/xlink" width="1080" zoomAndPan="magnify" viewBox="0 0 810 809.999993" height="1080" preserveAspectRatio="xMidYMid meet" version="1.0"><defs><clipPath id="2af14eb48c"><path d="M 260 55.515625 L 782 55.515625 L 782 754.515625 L 260 754.515625 Z M 260 55.515625 " clip-rule="nonzero"/></clipPath></defs><path fill="#ffffff" d="M 270.222656 312.230469 C 225.882812 312.230469 185.039062 329.734375 154.703125 360.074219 C 90.523438 424.25 90.523438 528.105469 154.703125 592.285156 C 218.878906 656.460938 322.734375 656.460938 386.914062 592.285156 C 489.597656 489.597656 414.917969 312.230469 270.222656 312.230469 Z M 369.410156 575.945312 C 314.566406 630.789062 225.882812 630.789062 171.039062 575.945312 C 116.195312 521.101562 116.195312 432.421875 171.039062 377.578125 C 197.875 350.738281 232.882812 336.734375 270.222656 336.734375 C 395.082031 335.570312 458.09375 487.261719 369.410156 575.945312 Z M 369.410156 575.945312 " fill-opacity="1" fill-rule="nonzero"/><path fill="#ffffff" d="M 106.859375 568.945312 L 48.515625 626.121094 C 28.679688 645.960938 28.679688 677.464844 48.515625 697.304688 C 68.351562 717.140625 99.859375 717.140625 119.695312 697.304688 L 176.871094 640.125 C 148.867188 622.621094 124.363281 598.117188 106.859375 568.945312 Z M 106.859375 568.945312 " fill-opacity="1" fill-rule="nonzero"/><g clip-path="url(#2af14eb48c)"><path fill="#ffffff" d="M 745.144531 55.515625 L 297.0625 55.515625 C 277.226562 55.515625 260.886719 71.851562 260.886719 91.6875 L 260.886719 290.058594 C 264.390625 290.058594 266.722656 290.058594 270.222656 290.058594 C 347.238281 290.058594 413.75 334.402344 442.921875 405.582031 C 472.09375 476.761719 456.925781 554.941406 403.25 609.785156 C 368.242188 644.792969 320.398438 664.628906 270.222656 664.628906 C 266.722656 664.628906 264.390625 664.628906 260.886719 664.628906 L 260.886719 718.308594 C 260.886719 738.144531 277.226562 754.480469 297.0625 754.480469 L 745.144531 754.480469 C 764.984375 754.480469 781.320312 738.144531 781.320312 718.308594 L 781.320312 91.6875 C 781.320312 71.851562 764.984375 55.515625 745.144531 55.515625 Z M 696.136719 679.800781 L 381.078125 679.800781 C 374.078125 679.800781 369.410156 673.964844 369.410156 668.132812 C 369.410156 662.296875 374.078125 656.460938 381.078125 656.460938 L 696.136719 656.460938 C 703.136719 656.460938 707.804688 662.296875 707.804688 668.132812 C 707.804688 673.964844 703.136719 679.800781 696.136719 679.800781 Z M 696.136719 603.953125 L 486.097656 603.953125 C 479.097656 603.953125 474.429688 599.285156 474.429688 592.285156 C 474.429688 586.449219 479.097656 580.613281 486.097656 580.613281 L 696.136719 580.613281 C 703.136719 580.613281 707.804688 586.449219 707.804688 592.285156 C 707.804688 599.285156 703.136719 603.953125 696.136719 603.953125 Z M 696.136719 529.273438 L 507.101562 529.273438 C 501.265625 529.273438 495.433594 523.4375 495.433594 517.601562 C 495.433594 511.769531 501.265625 505.933594 507.101562 505.933594 L 696.136719 505.933594 C 703.136719 505.933594 707.804688 511.769531 707.804688 517.601562 C 707.804688 523.4375 703.136719 529.273438 696.136719 529.273438 Z M 696.136719 453.425781 L 495.433594 453.425781 C 489.597656 453.425781 483.765625 448.757812 483.765625 441.753906 C 483.765625 435.921875 489.597656 430.085938 495.433594 430.085938 L 696.136719 430.085938 C 703.136719 430.085938 707.804688 435.921875 707.804688 441.753906 C 707.804688 448.757812 703.136719 453.425781 696.136719 453.425781 Z M 696.136719 378.742188 L 474.429688 378.742188 C 467.425781 378.742188 462.761719 374.074219 462.761719 367.074219 C 462.761719 360.074219 467.425781 355.40625 474.429688 355.40625 L 696.136719 355.40625 C 703.136719 355.40625 707.804688 360.074219 707.804688 367.074219 C 707.804688 372.910156 703.136719 378.742188 696.136719 378.742188 Z M 696.136719 302.894531 L 392.746094 302.894531 C 385.746094 302.894531 381.078125 298.226562 381.078125 291.226562 C 381.078125 285.390625 385.746094 279.558594 392.746094 279.558594 L 696.136719 279.558594 C 703.136719 279.558594 707.804688 285.390625 707.804688 291.226562 C 707.804688 298.226562 703.136719 302.894531 696.136719 302.894531 Z M 696.136719 228.214844 L 346.070312 228.214844 C 339.070312 228.214844 334.402344 223.546875 334.402344 216.546875 C 334.402344 209.542969 339.070312 204.878906 346.070312 204.878906 L 696.136719 204.878906 C 703.136719 204.878906 707.804688 209.542969 707.804688 216.546875 C 707.804688 222.378906 703.136719 228.214844 696.136719 228.214844 Z M 696.136719 152.367188 L 346.070312 152.367188 C 339.070312 152.367188 334.402344 147.699219 334.402344 140.699219 C 334.402344 133.695312 339.070312 129.03125 346.070312 129.03125 L 696.136719 129.03125 C 703.136719 129.03125 707.804688 133.695312 707.804688 140.699219 C 707.804688 146.53125 703.136719 152.367188 696.136719 152.367188 Z M 696.136719 152.367188 " fill-opacity="1" fill-rule="nonzero"/></g></svg>